<svg xmlns="http://www.w3.org/2000/svg" viewBox="0 0 100 100" preserveAspectRatio="xMidYMid" width="211" height="211" style="shape-rendering: auto; display: block; background: transparent;" xmlns:xlink="http://www.w3.org/1999/xlink"><g><g transform="rotate(0 50 50)">
  <rect fill="#c571fe" height="4" width="8" ry="2" rx="4" y="31" x="46">
    <animate repeatCount="indefinite" begin="-0.5424063116370809s" dur="0.591715976331361s" keyTimes="0;1" values="1;0" attributeName="opacity"></animate>
  </rect>
</g><g transform="rotate(30 50 50)">
  <rect fill="#7660f4" height="4" width="8" ry="2" rx="4" y="31" x="46">
    <animate repeatCount="indefinite" begin="-0.49309664694280075s" dur="0.591715976331361s" keyTimes="0;1" values="1;0" attributeName="opacity"></animate>
  </rect>
</g><g transform="rotate(60 50 50)">
  <rect fill="#946af8" height="4" width="8" ry="2" rx="4" y="31" x="46">
    <animate repeatCount="indefinite" begin="-0.4437869822485207s" dur="0.591715976331361s" keyTimes="0;1" values="1;0" attributeName="opacity"></animate>
  </rect>
</g><g transform="rotate(90 50 50)">
  <rect fill="#7286be" height="4" width="8" ry="2" rx="4" y="31" x="46">
    <animate repeatCount="indefinite" begin="-0.3944773175542406s" dur="0.591715976331361s" keyTimes="0;1" values="1;0" attributeName="opacity"></animate>
  </rect>
</g><g transform="rotate(120 50 50)">
  <rect fill="#8e7abc" height="4" width="8" ry="2" rx="4" y="31" x="46">
    <animate repeatCount="indefinite" begin="-0.34516765285996054s" dur="0.591715976331361s" keyTimes="0;1" values="1;0" attributeName="opacity"></animate>
  </rect>
</g><g transform="rotate(150 50 50)">
  <rect fill="#6482ac" height="4" width="8" ry="2" rx="4" y="31" x="46">
    <animate repeatCount="indefinite" begin="-0.29585798816568043s" dur="0.591715976331361s" keyTimes="0;1" values="1;0" attributeName="opacity"></animate>
  </rect>
</g><g transform="rotate(180 50 50)">
  <rect fill="#637cb5" height="4" width="8" ry="2" rx="4" y="31" x="46">
    <animate repeatCount="indefinite" begin="-0.24654832347140038s" dur="0.591715976331361s" keyTimes="0;1" values="1;0" attributeName="opacity"></animate>
  </rect>
</g><g transform="rotate(210 50 50)">
  <rect fill="#6a63b6" height="4" width="8" ry="2" rx="4" y="31" x="46">
    <animate repeatCount="indefinite" begin="-0.1972386587771203s" dur="0.591715976331361s" keyTimes="0;1" values="1;0" attributeName="opacity"></animate>
  </rect>
</g><g transform="rotate(240 50 50)">
  <rect fill="#c571fe" height="4" width="8" ry="2" rx="4" y="31" x="46">
    <animate repeatCount="indefinite" begin="-0.14792899408284022s" dur="0.591715976331361s" keyTimes="0;1" values="1;0" attributeName="opacity"></animate>
  </rect>
</g><g transform="rotate(270 50 50)">
  <rect fill="#7660f4" height="4" width="8" ry="2" rx="4" y="31" x="46">
    <animate repeatCount="indefinite" begin="-0.09861932938856015s" dur="0.591715976331361s" keyTimes="0;1" values="1;0" attributeName="opacity"></animate>
  </rect>
</g><g transform="rotate(300 50 50)">
  <rect fill="#946af8" height="4" width="8" ry="2" rx="4" y="31" x="46">
    <animate repeatCount="indefinite" begin="-0.049309664694280074s" dur="0.591715976331361s" keyTimes="0;1" values="1;0" attributeName="opacity"></animate>
  </rect>
</g><g transform="rotate(330 50 50)">
  <rect fill="#7286be" height="4" width="8" ry="2" rx="4" y="31" x="46">
    <animate repeatCount="indefinite" begin="0s" dur="0.591715976331361s" keyTimes="0;1" values="1;0" attributeName="opacity"></animate>
  </rect>
</g><g></g></g><!-- [ldio] generated by https://loading.io --></svg>